<?xml version="1.0" standalone="no"?>
<!DOCTYPE svg PUBLIC "-//W3C//DTD SVG 20010904//EN"
 "http://www.w3.org/TR/2001/REC-SVG-20010904/DTD/svg10.dtd">
<svg version="1.0" xmlns="http://www.w3.org/2000/svg"
 width="500.000000pt" height="500.000000pt" viewBox="0 0 500.000000 500.000000"
 preserveAspectRatio="xMidYMid meet">

<g transform="translate(0.000000,500.000000) scale(0.100000,-0.100000)"
fill="#000000" stroke="none">
<path d="M913 2943 c-16 -24 -18 -57 -21 -258 -4 -273 2 -323 41 -345 20 -11
31 -12 44 -4 15 9 19 28 21 103 3 90 3 92 25 85 29 -9 64 -41 93 -86 17 -27
31 -38 48 -38 56 0 56 59 0 115 l-33 33 38 39 c43 43 61 92 61 168 0 67 -17
123 -45 150 -30 31 -89 47 -122 34 -21 -8 -30 -6 -48 11 -32 30 -80 27 -102
-7z m220 -83 c14 -28 17 -52 14 -115 -6 -120 -45 -182 -108 -173 -23 3 -24 7
-22 63 5 148 15 236 30 251 26 25 66 13 86 -26z"/>
<path d="M2614 2945 c-4 -10 -1 -21 6 -25 11 -7 11 -11 1 -24 -8 -9 -9 -16 -3
-16 17 0 34 28 30 51 -4 28 -26 36 -34 14z"/>
<path d="M1624 2921 c-73 -44 -115 -141 -115 -266 0 -131 36 -228 102 -276 38
-27 101 -29 148 -5 50 26 81 106 45 120 -21 8 -54 -11 -54 -32 0 -28 -29 -62
-54 -62 -56 0 -81 75 -80 240 1 146 20 220 67 254 l29 21 24 -28 c22 -25 24
-37 24 -118 0 -98 10 -129 40 -129 57 0 76 82 45 187 -22 75 -69 113 -138 113
-33 0 -63 -7 -83 -19z"/>
<path d="M3759 2923 c-19 -23 -19 -381 0 -476 16 -80 33 -102 70 -91 14 4 48
7 74 6 86 -4 147 44 147 116 0 40 -34 79 -80 93 l-39 12 37 27 c48 34 69 67
82 124 25 114 -57 223 -149 196 -18 -5 -33 -5 -36 1 -11 16 -91 10 -106 -8z
m197 -44 c28 -31 26 -139 -4 -196 -21 -40 -65 -83 -85 -83 -16 0 -3 280 14
291 24 15 55 10 75 -12z m-1 -354 c29 -28 33 -79 9 -113 -17 -25 -71 -31 -92
-10 -13 13 -17 130 -5 141 15 16 65 6 88 -18z"/>
<path d="M1909 2908 c-14 -25 -6 -400 9 -453 12 -42 48 -47 63 -8 17 44 25
449 9 468 -19 23 -67 19 -81 -7z"/>
<path d="M2076 2901 c-24 -26 -39 -180 -33 -321 7 -138 17 -170 51 -170 31 0
42 19 51 88 l7 52 48 0 c90 0 130 61 130 197 0 56 -4 77 -23 104 -31 47 -70
64 -113 51 -26 -8 -36 -7 -45 4 -16 20 -53 17 -73 -5z m155 -50 c22 -18 24
-27 24 -113 0 -105 -18 -153 -60 -164 -45 -11 -48 -1 -42 140 5 108 9 133 23
143 23 17 27 16 55 -6z"/>
<path d="M3289 2894 c-10 -12 -15 -58 -17 -155 l-4 -139 -40 0 -40 0 4 143 3
142 -25 0 c-20 0 -25 -7 -33 -40 -13 -62 -5 -401 11 -417 20 -20 33 4 39 71
l6 61 37 0 38 0 7 -67 c9 -83 13 -93 36 -93 27 0 36 25 49 140 17 158 18 333
1 353 -17 22 -55 22 -72 1z"/>
<path d="M2820 2883 c-63 -44 -95 -122 -88 -214 6 -77 27 -106 111 -147 69
-34 82 -53 47 -72 -22 -12 -33 -8 -67 23 -25 22 -53 17 -53 -11 0 -51 92 -78
147 -43 62 39 52 95 -27 147 -22 15 -50 43 -62 63 -46 73 -21 216 38 216 17 0
20 -10 24 -98 5 -99 15 -122 47 -110 40 15 57 131 29 197 -26 62 -94 85 -146
49z"/>
<path d="M1313 2865 c-42 -18 -53 -59 -53 -200 1 -173 22 -235 82 -235 27 0
98 24 98 33 0 3 -20 2 -44 0 l-44 -5 -7 50 c-8 61 -3 72 35 72 44 0 46 18 3
22 l-38 3 1 102 c1 55 4 108 7 117 5 12 20 16 62 16 59 0 72 14 29 30 -36 14
-93 12 -131 -5z"/>
<path d="M2412 2863 c-42 -21 -47 -41 -47 -203 0 -146 12 -202 47 -221 25 -13
102 -3 117 15 8 10 2 13 -32 12 l-42 -1 -3 58 -3 57 36 0 c19 0 35 5 35 10 0
6 -15 10 -34 10 -42 0 -44 9 -36 140 l5 95 58 3 c61 3 74 16 31 32 -38 15 -95
12 -132 -7z"/>
<path d="M3420 2836 c-12 -37 -15 -214 -4 -273 9 -50 29 -88 56 -107 29 -20
97 -21 125 -1 21 14 22 14 25 -12 4 -39 29 -35 50 7 23 48 39 156 41 277 1
112 -8 136 -52 131 -25 -3 -26 -5 -29 -88 -7 -221 -27 -300 -77 -300 -42 0
-48 27 -40 199 9 182 4 201 -50 201 -29 0 -35 -4 -45 -34z"/>
</g>
</svg>
