<?xml version="1.0" standalone="no"?>
<!DOCTYPE svg PUBLIC "-//W3C//DTD SVG 20010904//EN"
 "http://www.w3.org/TR/2001/REC-SVG-20010904/DTD/svg10.dtd">
<svg version="1.0" xmlns="http://www.w3.org/2000/svg"
 width="500.000000pt" height="500.000000pt" viewBox="0 0 500.000000 500.000000"
 preserveAspectRatio="xMidYMid meet">

<g transform="translate(0.000000,500.000000) scale(0.100000,-0.100000)"
fill="#000000" stroke="none">
<path d="M913 2943 c-16 -23 -18 -57 -21 -253 -4 -275 3 -328 41 -350 20 -11
31 -12 44 -4 15 9 19 28 21 103 3 90 3 92 25 85 30 -9 54 -31 89 -81 20 -30
36 -43 52 -43 56 0 56 59 0 115 l-33 33 38 39 c48 47 65 104 59 193 -7 88 -28
127 -84 152 -37 16 -51 18 -76 9 -27 -10 -35 -8 -53 9 -32 30 -80 26 -102 -7z
m219 -83 c20 -40 24 -134 8 -192 -6 -21 -22 -51 -37 -68 -20 -25 -32 -30 -57
-28 l-31 3 2 60 c5 148 15 236 30 251 26 26 66 14 85 -26z"/>
<path d="M2614 2945 c-4 -10 -1 -21 6 -25 11 -7 11 -11 1 -24 -8 -9 -9 -16 -3
-16 17 0 34 28 30 51 -4 28 -26 36 -34 14z"/>
<path d="M1624 2921 c-73 -44 -115 -142 -115 -266 -1 -130 36 -229 102 -276
38 -27 101 -29 148 -5 50 26 81 106 45 120 -21 8 -54 -11 -54 -32 0 -28 -29
-62 -54 -62 -56 0 -81 75 -80 240 1 146 20 220 67 254 l29 21 24 -28 c22 -25
24 -37 24 -118 0 -98 10 -129 40 -129 57 0 76 82 45 187 -22 75 -69 113 -138
113 -33 0 -63 -7 -83 -19z"/>
<path d="M1909 2908 c-14 -25 -6 -400 9 -453 12 -42 48 -47 63 -8 17 44 25
449 9 468 -19 23 -67 19 -81 -7z"/>
<path d="M2076 2901 c-24 -26 -39 -180 -33 -321 7 -138 17 -170 51 -170 31 0
42 19 51 88 l7 52 48 0 c90 0 130 61 130 197 0 56 -4 77 -23 104 -31 47 -70
64 -113 51 -26 -8 -36 -7 -45 4 -16 20 -53 17 -73 -5z m155 -50 c22 -18 24
-27 24 -113 0 -105 -18 -153 -60 -164 -45 -11 -48 -1 -42 140 5 108 9 133 23
143 23 17 27 16 55 -6z"/>
<path d="M2820 2883 c-63 -44 -95 -122 -88 -214 6 -77 27 -106 111 -147 69
-34 82 -53 48 -72 -26 -14 -26 -14 -57 15 -32 29 -58 29 -62 -1 -5 -34 33 -59
90 -59 42 0 53 4 74 28 33 38 30 63 -10 101 -19 17 -50 46 -70 63 -40 38 -61
98 -53 157 7 47 37 91 63 91 17 0 20 -10 24 -98 5 -99 15 -122 47 -110 40 15
57 131 29 197 -26 62 -94 85 -146 49z"/>
<path d="M1313 2865 c-42 -18 -53 -59 -53 -200 1 -173 22 -235 82 -235 27 0
98 24 98 33 0 3 -20 2 -44 0 l-44 -5 -7 50 c-8 61 -3 72 35 72 44 0 46 18 3
22 l-38 3 1 102 c1 55 4 108 7 117 5 12 20 16 62 16 59 0 72 14 29 30 -36 14
-93 12 -131 -5z"/>
<path d="M2412 2863 c-42 -21 -47 -41 -47 -203 0 -146 12 -202 47 -221 25 -13
102 -3 117 15 8 10 2 13 -32 12 l-42 -1 -3 58 -3 57 36 0 c19 0 35 5 35 10 0
6 -15 10 -34 10 -42 0 -46 16 -37 145 l6 90 58 3 c61 3 74 16 31 32 -38 15
-95 12 -132 -7z"/>
</g>
</svg>
